<mxfile host="app.diagrams.net" modified="2023-06-16T11:47:42.619Z" agent="Mozilla/5.0 (Windows NT 10.0; Win64; x64) AppleWebKit/537.36 (KHTML, like Gecko) Chrome/104.0.0.0 Safari/537.36" etag="Hga-ephg2htSG16MPCPl" version="21.4.0" type="device">
  <diagram id="vlpkgMdEMgH9VOX5dHiI" name="Page-1">
    <mxGraphModel dx="1050" dy="573" grid="1" gridSize="10" guides="1" tooltips="1" connect="1" arrows="1" fold="1" page="1" pageScale="1" pageWidth="850" pageHeight="1100" math="0" shadow="0">
      <root>
        <mxCell id="0" />
        <mxCell id="1" parent="0" />
        <mxCell id="gPhhukDK_Y_oDujhNIIJ-2" value="Приют" style="whiteSpace=wrap;html=1;align=center;" parent="1" vertex="1">
          <mxGeometry x="20" y="260" width="100" height="40" as="geometry" />
        </mxCell>
        <mxCell id="gPhhukDK_Y_oDujhNIIJ-3" value="Куратор" style="whiteSpace=wrap;html=1;align=center;" parent="1" vertex="1">
          <mxGeometry x="330" y="430" width="100" height="40" as="geometry" />
        </mxCell>
        <mxCell id="gPhhukDK_Y_oDujhNIIJ-4" value="Закупка" style="whiteSpace=wrap;html=1;align=center;" parent="1" vertex="1">
          <mxGeometry x="650" y="260" width="100" height="40" as="geometry" />
        </mxCell>
        <mxCell id="gPhhukDK_Y_oDujhNIIJ-9" value="" style="endArrow=none;html=1;rounded=0;entryX=0.5;entryY=0;entryDx=0;entryDy=0;exitX=0.5;exitY=1;exitDx=0;exitDy=0;" parent="1" source="4HzFimvUAcErel0JD2xa-18" target="gPhhukDK_Y_oDujhNIIJ-3" edge="1">
          <mxGeometry relative="1" as="geometry">
            <mxPoint x="380" y="300" as="sourcePoint" />
            <mxPoint x="500" y="290" as="targetPoint" />
          </mxGeometry>
        </mxCell>
        <mxCell id="gPhhukDK_Y_oDujhNIIJ-10" value="m" style="resizable=0;html=1;align=left;verticalAlign=bottom;" parent="gPhhukDK_Y_oDujhNIIJ-9" connectable="0" vertex="1">
          <mxGeometry x="-1" relative="1" as="geometry">
            <mxPoint y="20" as="offset" />
          </mxGeometry>
        </mxCell>
        <mxCell id="gPhhukDK_Y_oDujhNIIJ-11" value="n" style="resizable=0;html=1;align=right;verticalAlign=bottom;" parent="gPhhukDK_Y_oDujhNIIJ-9" connectable="0" vertex="1">
          <mxGeometry x="1" relative="1" as="geometry">
            <mxPoint x="-4" y="-2" as="offset" />
          </mxGeometry>
        </mxCell>
        <mxCell id="gPhhukDK_Y_oDujhNIIJ-12" value="Опекает" style="shape=rhombus;perimeter=rhombusPerimeter;whiteSpace=wrap;html=1;align=center;" parent="1" vertex="1">
          <mxGeometry x="320" y="330" width="120" height="60" as="geometry" />
        </mxCell>
        <mxCell id="gPhhukDK_Y_oDujhNIIJ-13" value="" style="endArrow=none;html=1;rounded=0;exitX=1;exitY=0.5;exitDx=0;exitDy=0;entryX=0;entryY=0.5;entryDx=0;entryDy=0;startArrow=none;" parent="1" source="gPhhukDK_Y_oDujhNIIJ-15" target="4HzFimvUAcErel0JD2xa-18" edge="1">
          <mxGeometry relative="1" as="geometry">
            <mxPoint x="340" y="290" as="sourcePoint" />
            <mxPoint x="330" y="280" as="targetPoint" />
          </mxGeometry>
        </mxCell>
        <mxCell id="gPhhukDK_Y_oDujhNIIJ-14" value="n" style="resizable=0;html=1;align=right;verticalAlign=bottom;" parent="gPhhukDK_Y_oDujhNIIJ-13" connectable="0" vertex="1">
          <mxGeometry x="1" relative="1" as="geometry">
            <mxPoint x="-5" as="offset" />
          </mxGeometry>
        </mxCell>
        <mxCell id="gPhhukDK_Y_oDujhNIIJ-15" value="Содержит" style="shape=rhombus;perimeter=rhombusPerimeter;whiteSpace=wrap;html=1;align=center;" parent="1" vertex="1">
          <mxGeometry x="170" y="250" width="120" height="60" as="geometry" />
        </mxCell>
        <mxCell id="gPhhukDK_Y_oDujhNIIJ-16" value="" style="endArrow=none;html=1;rounded=0;exitX=1;exitY=0.5;exitDx=0;exitDy=0;entryX=0;entryY=0.5;entryDx=0;entryDy=0;" parent="1" source="gPhhukDK_Y_oDujhNIIJ-2" target="gPhhukDK_Y_oDujhNIIJ-15" edge="1">
          <mxGeometry relative="1" as="geometry">
            <mxPoint x="140" y="280" as="sourcePoint" />
            <mxPoint x="330" y="280" as="targetPoint" />
          </mxGeometry>
        </mxCell>
        <mxCell id="gPhhukDK_Y_oDujhNIIJ-18" value="" style="endArrow=none;html=1;rounded=0;entryX=0;entryY=0.5;entryDx=0;entryDy=0;exitX=1;exitY=0.5;exitDx=0;exitDy=0;" parent="1" source="4HzFimvUAcErel0JD2xa-18" target="gPhhukDK_Y_oDujhNIIJ-4" edge="1">
          <mxGeometry relative="1" as="geometry">
            <mxPoint x="500" y="310" as="sourcePoint" />
            <mxPoint x="620" y="340" as="targetPoint" />
            <Array as="points" />
          </mxGeometry>
        </mxCell>
        <mxCell id="gPhhukDK_Y_oDujhNIIJ-19" value="m" style="resizable=0;html=1;align=left;verticalAlign=bottom;" parent="gPhhukDK_Y_oDujhNIIJ-18" connectable="0" vertex="1">
          <mxGeometry x="-1" relative="1" as="geometry">
            <mxPoint x="4" as="offset" />
          </mxGeometry>
        </mxCell>
        <mxCell id="gPhhukDK_Y_oDujhNIIJ-20" value="n" style="resizable=0;html=1;align=right;verticalAlign=bottom;" parent="gPhhukDK_Y_oDujhNIIJ-18" connectable="0" vertex="1">
          <mxGeometry x="1" relative="1" as="geometry">
            <mxPoint x="-3" as="offset" />
          </mxGeometry>
        </mxCell>
        <mxCell id="gPhhukDK_Y_oDujhNIIJ-24" value="Использует" style="shape=rhombus;perimeter=rhombusPerimeter;whiteSpace=wrap;html=1;align=center;" parent="1" vertex="1">
          <mxGeometry x="480" y="250" width="120" height="60" as="geometry" />
        </mxCell>
        <mxCell id="gPhhukDK_Y_oDujhNIIJ-29" value="" style="endArrow=none;html=1;rounded=0;entryX=0.5;entryY=0;entryDx=0;entryDy=0;" parent="1" target="4HzFimvUAcErel0JD2xa-18" edge="1">
          <mxGeometry relative="1" as="geometry">
            <mxPoint x="379" y="50" as="sourcePoint" />
            <mxPoint x="379" y="220" as="targetPoint" />
          </mxGeometry>
        </mxCell>
        <mxCell id="gPhhukDK_Y_oDujhNIIJ-30" value="" style="endArrow=none;html=1;rounded=0;entryX=0.25;entryY=0;entryDx=0;entryDy=0;" parent="1" edge="1">
          <mxGeometry relative="1" as="geometry">
            <mxPoint x="20" y="20" as="sourcePoint" />
            <mxPoint x="20" y="260" as="targetPoint" />
          </mxGeometry>
        </mxCell>
        <mxCell id="gPhhukDK_Y_oDujhNIIJ-31" value="" style="endArrow=none;html=1;rounded=0;" parent="1" edge="1">
          <mxGeometry relative="1" as="geometry">
            <mxPoint x="330" y="470" as="sourcePoint" />
            <mxPoint x="331" y="650" as="targetPoint" />
          </mxGeometry>
        </mxCell>
        <mxCell id="gPhhukDK_Y_oDujhNIIJ-32" value="" style="endArrow=none;html=1;rounded=0;entryX=0.25;entryY=0;entryDx=0;entryDy=0;" parent="1" edge="1">
          <mxGeometry relative="1" as="geometry">
            <mxPoint x="750" y="120" as="sourcePoint" />
            <mxPoint x="750" y="260" as="targetPoint" />
          </mxGeometry>
        </mxCell>
        <mxCell id="gPhhukDK_Y_oDujhNIIJ-43" style="edgeStyle=orthogonalEdgeStyle;rounded=0;orthogonalLoop=1;jettySize=auto;html=1;exitX=0;exitY=0.5;exitDx=0;exitDy=0;endArrow=none;endFill=0;" parent="1" source="gPhhukDK_Y_oDujhNIIJ-110" edge="1">
          <mxGeometry relative="1" as="geometry">
            <mxPoint x="20" y="50" as="targetPoint" />
            <mxPoint x="40" y="-10" as="sourcePoint" />
          </mxGeometry>
        </mxCell>
        <mxCell id="gPhhukDK_Y_oDujhNIIJ-44" style="edgeStyle=orthogonalEdgeStyle;rounded=0;orthogonalLoop=1;jettySize=auto;html=1;exitX=0;exitY=0.5;exitDx=0;exitDy=0;endArrow=none;endFill=0;" parent="1" source="gPhhukDK_Y_oDujhNIIJ-38" edge="1">
          <mxGeometry relative="1" as="geometry">
            <mxPoint x="20" y="110" as="targetPoint" />
          </mxGeometry>
        </mxCell>
        <mxCell id="gPhhukDK_Y_oDujhNIIJ-38" value="Улица" style="ellipse;whiteSpace=wrap;html=1;align=center;" parent="1" vertex="1">
          <mxGeometry x="40" y="50" width="100" height="40" as="geometry" />
        </mxCell>
        <mxCell id="gPhhukDK_Y_oDujhNIIJ-45" style="edgeStyle=orthogonalEdgeStyle;rounded=0;orthogonalLoop=1;jettySize=auto;html=1;endArrow=none;endFill=0;" parent="1" source="gPhhukDK_Y_oDujhNIIJ-39" edge="1">
          <mxGeometry relative="1" as="geometry">
            <mxPoint x="20" y="170" as="targetPoint" />
          </mxGeometry>
        </mxCell>
        <mxCell id="gPhhukDK_Y_oDujhNIIJ-39" value="Дом" style="ellipse;whiteSpace=wrap;html=1;align=center;" parent="1" vertex="1">
          <mxGeometry x="40" y="100" width="100" height="40" as="geometry" />
        </mxCell>
        <mxCell id="CI7vouWTxn01gIGSgKMB-15" style="edgeStyle=orthogonalEdgeStyle;rounded=0;orthogonalLoop=1;jettySize=auto;html=1;endArrow=none;endFill=0;" parent="1" source="gPhhukDK_Y_oDujhNIIJ-40" edge="1">
          <mxGeometry relative="1" as="geometry">
            <mxPoint x="20" y="230" as="targetPoint" />
          </mxGeometry>
        </mxCell>
        <mxCell id="gPhhukDK_Y_oDujhNIIJ-40" value="Квартира" style="ellipse;whiteSpace=wrap;html=1;align=center;" parent="1" vertex="1">
          <mxGeometry x="40" y="200" width="100" height="40" as="geometry" />
        </mxCell>
        <mxCell id="gPhhukDK_Y_oDujhNIIJ-55" style="edgeStyle=orthogonalEdgeStyle;rounded=0;orthogonalLoop=1;jettySize=auto;html=1;endArrow=none;endFill=0;" parent="1" source="gPhhukDK_Y_oDujhNIIJ-47" edge="1">
          <mxGeometry relative="1" as="geometry">
            <mxPoint x="380" y="50" as="targetPoint" />
          </mxGeometry>
        </mxCell>
        <mxCell id="gPhhukDK_Y_oDujhNIIJ-47" value="id" style="ellipse;whiteSpace=wrap;html=1;align=center;fontStyle=4;" parent="1" vertex="1">
          <mxGeometry x="250" y="30" width="100" height="40" as="geometry" />
        </mxCell>
        <mxCell id="gPhhukDK_Y_oDujhNIIJ-56" style="edgeStyle=orthogonalEdgeStyle;rounded=0;orthogonalLoop=1;jettySize=auto;html=1;endArrow=none;endFill=0;" parent="1" source="gPhhukDK_Y_oDujhNIIJ-48" edge="1">
          <mxGeometry relative="1" as="geometry">
            <mxPoint x="380" y="100" as="targetPoint" />
          </mxGeometry>
        </mxCell>
        <mxCell id="gPhhukDK_Y_oDujhNIIJ-48" value="Кличка" style="ellipse;whiteSpace=wrap;html=1;align=center;" parent="1" vertex="1">
          <mxGeometry x="250" y="80" width="100" height="40" as="geometry" />
        </mxCell>
        <mxCell id="gPhhukDK_Y_oDujhNIIJ-57" style="edgeStyle=orthogonalEdgeStyle;rounded=0;orthogonalLoop=1;jettySize=auto;html=1;endArrow=none;endFill=0;" parent="1" source="gPhhukDK_Y_oDujhNIIJ-49" edge="1">
          <mxGeometry relative="1" as="geometry">
            <mxPoint x="380" y="150" as="targetPoint" />
          </mxGeometry>
        </mxCell>
        <mxCell id="gPhhukDK_Y_oDujhNIIJ-49" value="Возраст" style="ellipse;whiteSpace=wrap;html=1;align=center;" parent="1" vertex="1">
          <mxGeometry x="250" y="130" width="100" height="40" as="geometry" />
        </mxCell>
        <mxCell id="gPhhukDK_Y_oDujhNIIJ-58" style="edgeStyle=orthogonalEdgeStyle;rounded=0;orthogonalLoop=1;jettySize=auto;html=1;endArrow=none;endFill=0;" parent="1" source="gPhhukDK_Y_oDujhNIIJ-50" edge="1">
          <mxGeometry relative="1" as="geometry">
            <mxPoint x="380" y="200" as="targetPoint" />
          </mxGeometry>
        </mxCell>
        <mxCell id="gPhhukDK_Y_oDujhNIIJ-50" value="Пол" style="ellipse;whiteSpace=wrap;html=1;align=center;" parent="1" vertex="1">
          <mxGeometry x="250" y="180" width="100" height="40" as="geometry" />
        </mxCell>
        <mxCell id="gPhhukDK_Y_oDujhNIIJ-70" style="edgeStyle=orthogonalEdgeStyle;rounded=0;orthogonalLoop=1;jettySize=auto;html=1;endArrow=none;endFill=0;exitX=0;exitY=0.5;exitDx=0;exitDy=0;" parent="1" source="15" edge="1">
          <mxGeometry relative="1" as="geometry">
            <mxPoint x="750" y="120" as="targetPoint" />
            <mxPoint x="770" y="50" as="sourcePoint" />
            <Array as="points">
              <mxPoint x="750" y="120" />
            </Array>
          </mxGeometry>
        </mxCell>
        <mxCell id="gPhhukDK_Y_oDujhNIIJ-71" style="edgeStyle=orthogonalEdgeStyle;rounded=0;orthogonalLoop=1;jettySize=auto;html=1;endArrow=none;endFill=0;" parent="1" source="gPhhukDK_Y_oDujhNIIJ-63" edge="1">
          <mxGeometry relative="1" as="geometry">
            <mxPoint x="750" y="170" as="targetPoint" />
          </mxGeometry>
        </mxCell>
        <mxCell id="gPhhukDK_Y_oDujhNIIJ-63" value="Частота закупки" style="ellipse;whiteSpace=wrap;html=1;align=center;" parent="1" vertex="1">
          <mxGeometry x="770" y="150" width="100" height="40" as="geometry" />
        </mxCell>
        <mxCell id="gPhhukDK_Y_oDujhNIIJ-73" style="edgeStyle=orthogonalEdgeStyle;rounded=0;orthogonalLoop=1;jettySize=auto;html=1;endArrow=none;endFill=0;" parent="1" source="gPhhukDK_Y_oDujhNIIJ-65" edge="1">
          <mxGeometry relative="1" as="geometry">
            <mxPoint x="750" y="220" as="targetPoint" />
          </mxGeometry>
        </mxCell>
        <mxCell id="gPhhukDK_Y_oDujhNIIJ-65" value="Стоимость" style="ellipse;whiteSpace=wrap;html=1;align=center;" parent="1" vertex="1">
          <mxGeometry x="770" y="200" width="100" height="40" as="geometry" />
        </mxCell>
        <mxCell id="gPhhukDK_Y_oDujhNIIJ-92" style="edgeStyle=orthogonalEdgeStyle;rounded=0;orthogonalLoop=1;jettySize=auto;html=1;endArrow=none;endFill=0;" parent="1" source="gPhhukDK_Y_oDujhNIIJ-87" edge="1">
          <mxGeometry relative="1" as="geometry">
            <mxPoint x="330" y="500" as="targetPoint" />
          </mxGeometry>
        </mxCell>
        <mxCell id="gPhhukDK_Y_oDujhNIIJ-87" value="id" style="ellipse;whiteSpace=wrap;html=1;align=center;fontStyle=4;" parent="1" vertex="1">
          <mxGeometry x="210" y="480" width="100" height="40" as="geometry" />
        </mxCell>
        <mxCell id="gPhhukDK_Y_oDujhNIIJ-93" style="edgeStyle=orthogonalEdgeStyle;rounded=0;orthogonalLoop=1;jettySize=auto;html=1;endArrow=none;endFill=0;" parent="1" source="gPhhukDK_Y_oDujhNIIJ-88" edge="1">
          <mxGeometry relative="1" as="geometry">
            <mxPoint x="330" y="500" as="targetPoint" />
          </mxGeometry>
        </mxCell>
        <mxCell id="gPhhukDK_Y_oDujhNIIJ-88" value="Телефон" style="ellipse;whiteSpace=wrap;html=1;align=center;" parent="1" vertex="1">
          <mxGeometry x="380" y="480" width="100" height="40" as="geometry" />
        </mxCell>
        <mxCell id="gPhhukDK_Y_oDujhNIIJ-94" style="edgeStyle=orthogonalEdgeStyle;rounded=0;orthogonalLoop=1;jettySize=auto;html=1;endArrow=none;endFill=0;" parent="1" source="gPhhukDK_Y_oDujhNIIJ-89" edge="1">
          <mxGeometry relative="1" as="geometry">
            <mxPoint x="330" y="550" as="targetPoint" />
          </mxGeometry>
        </mxCell>
        <mxCell id="gPhhukDK_Y_oDujhNIIJ-89" value="Имя" style="ellipse;whiteSpace=wrap;html=1;align=center;" parent="1" vertex="1">
          <mxGeometry x="210" y="530" width="100" height="40" as="geometry" />
        </mxCell>
        <mxCell id="gPhhukDK_Y_oDujhNIIJ-95" style="edgeStyle=orthogonalEdgeStyle;rounded=0;orthogonalLoop=1;jettySize=auto;html=1;endArrow=none;endFill=0;" parent="1" source="gPhhukDK_Y_oDujhNIIJ-90" edge="1">
          <mxGeometry relative="1" as="geometry">
            <mxPoint x="330" y="600" as="targetPoint" />
          </mxGeometry>
        </mxCell>
        <mxCell id="gPhhukDK_Y_oDujhNIIJ-90" value="Фамилия" style="ellipse;whiteSpace=wrap;html=1;align=center;" parent="1" vertex="1">
          <mxGeometry x="210" y="580" width="100" height="40" as="geometry" />
        </mxCell>
        <mxCell id="gPhhukDK_Y_oDujhNIIJ-96" style="edgeStyle=orthogonalEdgeStyle;rounded=0;orthogonalLoop=1;jettySize=auto;html=1;endArrow=none;endFill=0;" parent="1" source="gPhhukDK_Y_oDujhNIIJ-91" edge="1">
          <mxGeometry relative="1" as="geometry">
            <mxPoint x="330" y="650" as="targetPoint" />
          </mxGeometry>
        </mxCell>
        <mxCell id="gPhhukDK_Y_oDujhNIIJ-91" value="Отчество" style="ellipse;whiteSpace=wrap;html=1;align=center;" parent="1" vertex="1">
          <mxGeometry x="210" y="630" width="100" height="40" as="geometry" />
        </mxCell>
        <mxCell id="gPhhukDK_Y_oDujhNIIJ-109" style="edgeStyle=orthogonalEdgeStyle;rounded=0;orthogonalLoop=1;jettySize=auto;html=1;endArrow=none;endFill=0;" parent="1" source="gPhhukDK_Y_oDujhNIIJ-108" edge="1">
          <mxGeometry relative="1" as="geometry">
            <mxPoint x="20" y="170" as="targetPoint" />
          </mxGeometry>
        </mxCell>
        <mxCell id="gPhhukDK_Y_oDujhNIIJ-108" value="Этаж" style="ellipse;whiteSpace=wrap;html=1;align=center;" parent="1" vertex="1">
          <mxGeometry x="40" y="150" width="100" height="40" as="geometry" />
        </mxCell>
        <mxCell id="gPhhukDK_Y_oDujhNIIJ-110" value="id" style="ellipse;whiteSpace=wrap;html=1;align=center;fontStyle=4;" parent="1" vertex="1">
          <mxGeometry x="40" width="100" height="40" as="geometry" />
        </mxCell>
        <mxCell id="3" style="edgeStyle=orthogonalEdgeStyle;rounded=0;orthogonalLoop=1;jettySize=auto;html=1;endArrow=none;endFill=0;" parent="1" source="2" edge="1">
          <mxGeometry relative="1" as="geometry">
            <mxPoint x="380" y="200" as="targetPoint" />
          </mxGeometry>
        </mxCell>
        <mxCell id="2" value="Вес" style="ellipse;whiteSpace=wrap;html=1;align=center;" parent="1" vertex="1">
          <mxGeometry x="425" y="180" width="100" height="40" as="geometry" />
        </mxCell>
        <mxCell id="12" style="edgeStyle=orthogonalEdgeStyle;rounded=0;orthogonalLoop=1;jettySize=auto;html=1;endArrow=none;endFill=0;" parent="1" source="11" edge="1">
          <mxGeometry relative="1" as="geometry">
            <mxPoint x="750" y="220" as="targetPoint" />
          </mxGeometry>
        </mxCell>
        <mxCell id="11" value="id" style="ellipse;whiteSpace=wrap;html=1;align=center;fontStyle=4;" parent="1" vertex="1">
          <mxGeometry x="620" y="200" width="100" height="40" as="geometry" />
        </mxCell>
        <mxCell id="15" value="Название" style="ellipse;whiteSpace=wrap;html=1;align=center;" parent="1" vertex="1">
          <mxGeometry x="770" y="100" width="100" height="40" as="geometry" />
        </mxCell>
        <mxCell id="4HzFimvUAcErel0JD2xa-15" value="Рост" style="ellipse;whiteSpace=wrap;html=1;align=center;" parent="1" vertex="1">
          <mxGeometry x="425" y="130" width="100" height="40" as="geometry" />
        </mxCell>
        <mxCell id="4HzFimvUAcErel0JD2xa-16" style="edgeStyle=orthogonalEdgeStyle;rounded=0;orthogonalLoop=1;jettySize=auto;html=1;endArrow=none;endFill=0;exitX=0;exitY=0.5;exitDx=0;exitDy=0;" parent="1" source="4HzFimvUAcErel0JD2xa-15" edge="1">
          <mxGeometry relative="1" as="geometry">
            <mxPoint x="380" y="150" as="targetPoint" />
            <mxPoint x="460" y="100" as="sourcePoint" />
          </mxGeometry>
        </mxCell>
        <mxCell id="4HzFimvUAcErel0JD2xa-18" value="Животное" style="whiteSpace=wrap;html=1;align=center;" parent="1" vertex="1">
          <mxGeometry x="330" y="260" width="100" height="40" as="geometry" />
        </mxCell>
        <mxCell id="75vQyzXTObfcT01_R0ZQ-15" value="1" style="resizable=0;html=1;align=left;verticalAlign=bottom;" parent="1" connectable="0" vertex="1">
          <mxGeometry x="124" y="280" as="geometry" />
        </mxCell>
        <mxCell id="75vQyzXTObfcT01_R0ZQ-16" value="Тип" style="ellipse;whiteSpace=wrap;html=1;align=center;" parent="1" vertex="1">
          <mxGeometry x="425" y="80" width="100" height="40" as="geometry" />
        </mxCell>
        <mxCell id="75vQyzXTObfcT01_R0ZQ-17" style="edgeStyle=orthogonalEdgeStyle;rounded=0;orthogonalLoop=1;jettySize=auto;html=1;endArrow=none;endFill=0;exitX=0;exitY=0.5;exitDx=0;exitDy=0;" parent="1" source="75vQyzXTObfcT01_R0ZQ-16" edge="1">
          <mxGeometry relative="1" as="geometry">
            <mxPoint x="380" y="100" as="targetPoint" />
            <mxPoint x="435" y="160" as="sourcePoint" />
          </mxGeometry>
        </mxCell>
      </root>
    </mxGraphModel>
  </diagram>
</mxfile>
